PathFileType	4	(X/Y/Z)	OpenSim_Sub03_EMGBaseline_Accel.trc
DataRate	CameraRate	NumFrames	NumMarkers	Units	OrigDataRate	OrigDataStartFrame	OrigNumFrames
100	100	31	8	m	100	6451	7372
Frame#	Time	torso_imu_offset_imu	pelvis_imu_offset_imu	tibia_r_imu_offset_imu	femur_r_imu_offset_imu	tibia_l_imu_offset_imu	femur_l_imu_offset_imu	toes_r_imu_offset_imu	toes_l_imu_offset_imu
				X1	Y1	Z1	X2	Y2	Z2	X3	Y3	Z3	X4	Y4	Z4	X5	Y5	Z5	X6	Y6	Z6	X7	Y7	Z7	X8		Y8	Z8	

6451	64.50000000	8.04469034	0.42091703	5.96960457	8.76810185	0.75858130	2.96153723	9.72560159	-2.20127541	0.46831529	9.43293728	-1.87802745	-0.15991175	4.74765111	-4.46974587	2.72198615	9.63214700	0.26979293	1.07203662	5.48608359	-3.33282796	7.46155892	4.07517862	-1.44284927	9.89056321
6452	64.51000000	7.90983050	0.33387219	5.92542918	8.56371114	0.49877982	2.84629295	9.78051034	-1.91340803	0.25896783	9.46642623	-2.03061177	-0.07640041	4.67904013	-4.92690949	2.50030270	9.59381295	0.40101265	0.94275122	5.84108684	-2.98850677	7.43138225	5.07920710	-1.73119519	10.26952094
6453	64.52000000	8.00854605	0.29085583	6.00227387	8.56058082	0.28015754	2.72461436	9.88771085	-1.34643890	-0.06913714	9.53750886	-2.19305637	-0.15873171	4.51172031	-5.43203200	2.11794056	9.52864341	0.44266347	0.68884963	6.13127222	-2.86013865	7.36441108	5.72797461	-1.68436526	10.66763868
6454	64.53000000	8.18907457	0.16170365	6.00843223	8.57218750	0.05025310	2.52929212	9.95682077	0.02185074	-0.10501304	9.53608262	-2.22949174	-0.22429381	4.53716092	-6.04668443	1.72088807	9.53304749	0.18638938	0.47548134	5.97617336	-2.80104367	7.27921979	6.17561707	-2.09850796	10.87080300
6455	64.54000000	8.29985863	0.05990372	6.00466830	8.73983312	-0.09334295	2.32234557	9.97760758	1.28024683	-0.09639593	9.50645764	-2.00671538	-0.26792518	5.04293600	-6.90878449	1.29224045	9.54246491	-0.20990215	0.40753745	6.27760276	-2.73735195	7.51040256	6.85253835	-2.84194706	11.10155519
6456	64.55000000	8.32719629	-0.07907791	5.94204326	8.99799404	-0.14472276	2.15904236	10.01583533	1.50435022	-0.17855951	9.43909266	-1.58085224	-0.28324881	5.74891309	-7.69096273	0.75020357	9.52530667	-0.74461447	0.41508143	6.37437953	-2.46124889	7.43380953	7.67913894	-3.45627295	11.28330402
6457	64.56000000	8.43063001	-0.16647349	5.96130019	9.22892969	-0.24761582	1.98923088	9.98350735	1.38120752	-0.25453867	9.49273939	-1.04066117	-0.22274932	5.93872838	-7.84010845	0.45385080	9.41725425	-1.22717239	0.38335602	6.49192259	-2.17729694	7.13597661	8.39575922	-3.32481962	11.39948833
6458	64.57000000	8.67525646	-0.22625711	5.97851621	9.48244696	-0.20409607	1.91338467	9.93500360	1.50712566	-0.16672807	9.57980714	-0.52412184	-0.03225841	5.81060014	-7.22755468	0.64456512	9.18851732	-1.48917861	0.36467950	6.53244897	-2.37907976	7.40560734	8.68925802	-2.30566122	11.27432187
6459	64.58000000	8.94485205	-0.26385984	5.98351559	9.62064294	-0.02149977	1.83173397	9.87953718	1.49805284	-0.13646423	9.58877409	-0.18709175	0.18017727	5.89533214	-6.08473758	1.12166345	8.93195408	-1.56514210	0.25122788	6.44543328	-2.32180613	7.32756626	8.95980405	-0.92293119	11.09629489
6460	64.59000000	9.09753797	-0.29321306	6.01176234	9.69047591	0.15072681	1.82058361	9.88215162	1.04660590	-0.20002155	9.64929690	-0.05035696	0.15208211	6.00751772	-4.97905532	1.80682578	8.85598865	-1.43612566	0.22408574	6.35777949	-2.42461225	7.44337316	9.34556325	0.12710795	10.94951639
6461	64.60000000	9.16266655	-0.30614368	6.08260459	9.67762481	0.38740641	1.87524415	9.93952955	0.74598230	-0.21931636	9.67874400	-0.13366441	-0.05942076	6.22665092	-3.89271375	2.49524834	8.82046716	-1.01903909	0.40277803	6.35198747	-2.67617570	7.28751041	9.82067898	1.11166852	10.71524826
6462	64.61000000	9.25368444	-0.21243274	6.12609949	9.61712340	0.65760714	1.93794653	9.86695960	0.70364574	-0.31564154	9.59991199	-0.36540692	-0.29611192	6.73179960	-2.87954787	3.05934397	8.64894242	-0.35511408	0.43540958	6.51749152	-2.59398355	7.22894684	10.42821492	2.23416708	10.55113747
6463	64.62000000	9.36285257	-0.12307796	6.14498156	9.53958164	0.89171911	1.92598122	9.93916979	0.76618466	-0.48136458	9.63361794	-0.59940359	-0.51062042	7.46944149	-2.18474142	3.26200288	8.46384017	0.46156963	0.41892094	6.24595637	-2.59449947	7.41374414	11.13728079	3.11588792	10.37270756
6464	64.63000000	9.37570645	-0.08276078	6.17453448	9.49452981	1.09084908	1.86813677	10.13928355	0.67058226	-0.57685707	9.68524265	-0.73706041	-0.68996962	8.27716084	-1.92857428	3.20699484	8.39620430	1.29867545	0.41343880	6.15884003	-3.04452412	7.29609888	11.72125421	3.55393427	10.09242305
6465	64.64000000	9.23797347	-0.06947198	6.20032402	9.54178855	1.24840704	1.75482196	10.11518756	0.62479885	-0.65080522	9.67871529	-0.70121020	-0.68283945	9.26799705	-2.10163905	2.91256575	8.44651227	2.07018279	0.51383002	6.25092884	-3.12541188	7.22173104	12.12917469	3.31933431	9.84006138
6466	64.65000000	9.20788883	0.04281911	6.23681643	9.66905993	1.31377908	1.60083652	10.07516472	0.85585483	-0.64979304	9.70679405	-0.52424750	-0.51984709	10.22411730	-2.72284112	2.46226950	8.63469263	2.82187048	0.67115284	6.59194112	-2.89777266	7.06064992	12.49398817	2.58305377	9.69595030
6467	64.66000000	9.21097516	0.10330954	6.28312950	9.76002957	1.32976613	1.54597664	9.98513435	1.06037473	-0.64224313	9.72339871	-0.53314646	-0.29886590	10.94074821	-3.60942092	1.74459753	8.87484145	3.41992647	0.74001341	6.40771534	-2.88125752	7.15482806	13.25062728	1.93735726	9.81591580
6468	64.67000000	9.12352985	0.12263094	6.34561389	9.79085335	1.30319270	1.45640538	10.09522574	1.02704922	-0.43893635	9.71391732	-0.42896141	-0.13660014	11.58388692	-4.18274233	0.74966096	8.96229110	3.76798523	0.78863063	6.24571076	-2.94881921	7.26465616	14.38643357	1.41971475	10.10955150
6469	64.68000000	9.04561272	0.21301155	6.36387934	9.80049789	1.20766749	1.32607804	9.96627181	1.21135548	-0.30799894	9.63395209	-0.23580175	-0.18334440	12.11876740	-4.36993390	-0.22962553	8.79982007	3.94503045	0.68834571	6.43264541	-2.68418860	7.21467781	15.22688722	0.75180572	10.26103411
6470	64.69000000	8.96027834	0.21841910	6.33510806	9.80778096	1.10255910	1.27388147	9.77016525	1.39143624	-0.26830753	9.60415432	-0.23798624	-0.24731684	12.48114970	-4.50303946	-0.92917995	8.49889593	3.97258754	0.54682074	6.63079567	-2.48701018	7.03815841	15.68125715	0.03181491	10.14147553
6471	64.70000000	8.89918030	0.26949506	6.33036164	9.77531448	1.09709525	1.21378188	9.89013870	1.19736276	-0.33768943	9.56782350	-0.12267634	-0.32783489	12.50964187	-4.19850548	-0.97975173	8.31617229	3.95671137	0.43377478	6.53738539	-2.72939415	7.01755246	16.20472451	-0.50825987	9.82595011
6472	64.71000000	8.91526345	0.33249830	6.30083535	9.68466767	1.12687205	1.18075248	9.87676219	1.15755899	-0.33720580	9.47882276	-0.21612267	-0.55634012	12.23264510	-3.02875389	-0.24092628	8.35154750	3.94569919	0.34683509	6.41849415	-2.83240121	7.12564390	16.90334693	-0.64008386	9.35846749
6473	64.72000000	8.96293584	0.34364453	6.30862739	9.65938233	1.23247811	1.16933669	9.83033594	1.17187023	-0.40662349	9.45187575	-0.67245105	-0.73463778	12.12385912	-1.72572603	0.40954084	8.54841823	3.98960388	0.41643753	6.59106085	-2.74209333	6.93908493	17.09866338	-0.62705142	8.56201543
6474	64.73000000	8.98154018	0.31584446	6.35914865	9.63661374	1.31232131	1.14698852	9.85746042	1.15698371	-0.52542552	9.37750951	-0.71861354	-0.72973994	12.06616441	-0.99635498	0.84414770	8.61372917	4.01827545	0.50278763	6.86051617	-2.60128525	6.69418146	16.49766637	-0.24791949	7.32478731
6475	64.74000000	9.03021012	0.29062081	6.34206923	9.65429911	1.33630514	1.14162511	9.80104421	1.24050746	-0.75186390	9.32690141	-0.66427580	-0.71618070	11.51455374	-0.88813606	1.15813094	8.66258709	3.93134853	0.42279265	6.77033789	-2.97428990	6.78606829	15.77023938	0.17337336	6.05441244
6476	64.75000000	9.10939997	0.28561389	6.39691061	9.68869779	1.37503626	1.24630992	9.89198656	1.33878001	-0.75758720	9.34561728	-0.75013775	-0.77922764	10.94146176	-1.10615941	0.95669116	8.84953547	3.83840446	0.40785207	6.52246267	-3.13359749	6.81144812	15.48214181	0.32161206	4.99114032
6477	64.76000000	9.14966674	0.25533490	6.43235867	9.69874472	1.28011355	1.26331627	9.92447982	1.45028411	-0.80683729	9.37145447	-0.77915077	-0.83720070	10.84375351	-1.44062697	0.36018558	9.06736327	3.85410279	0.62167840	6.58844415	-2.87987297	6.84066250	15.20031001	0.33423922	4.08026722
6478	64.77000000	9.14324039	0.21263432	6.44480422	9.66027090	1.13121820	1.25738313	9.85342025	1.72824415	-0.71926642	9.52729781	-0.43250686	-0.68857102	10.79950985	-1.99880312	0.03719480	9.10520289	4.04635654	0.87877981	6.76516218	-2.94730392	6.67299715	14.42777040	0.28594591	3.15249376
6479	64.78000000	9.12670222	0.18103429	6.47092492	9.63328171	0.92233839	1.30128365	9.84775471	1.76255932	-0.72576234	9.58069579	-0.39267025	-0.50317675	10.60362814	-2.47279192	-0.37556384	9.00914167	4.38901477	1.01286388	7.04243004	-2.76097377	6.55235819	13.64759398	-0.25695328	2.07980111
6480	64.79000000	9.15835987	0.14347721	6.44377991	9.57120599	0.69212970	1.31033341	9.95807749	1.73593777	-0.63237345	9.65184624	-0.49950743	-0.47641706	10.13087780	-1.98964146	-0.80080694	8.97117156	4.80757962	1.11403661	6.96741199	-2.79140227	6.63423921	13.60500881	-0.52966773	0.96971807
6481	64.80000000	9.16507692	0.14529790	6.43128066	9.43311534	0.60058798	1.22921068	10.03254939	1.80414254	-0.37824717	9.68850823	-0.52176944	-0.47142668	9.82907522	-0.51316910	-0.42262261	9.03867444	5.17996330	1.28501179	6.79295010	-2.65291036	6.80724774	14.07307230	-0.20446512	-0.07631440
